<svg width="170" height="56" viewBox="0 0 170 56" fill="none" xmlns="http://www.w3.org/2000/svg">
<path d="M20.6111 46.8625H15.4399V52.0337H5.09766V46.8625H10.2688V10.6646H5.09766V5.49341H10.2688V0.322266H36.1245V5.49341H41.2957V21.0068H36.1245V26.178H41.2957C41.2957 39.9677 41.2957 46.8625 41.2957 46.8625H36.1245V52.0337H20.6111V46.8625ZM25.7822 46.8625H30.9534C30.9534 33.0728 30.9534 26.178 30.9534 26.178H20.6111V41.6914H25.7822V46.8625ZM20.6111 21.0068H30.9534V5.49341H25.7822V10.6646H20.6111C20.6111 17.5594 20.6111 21.0068 20.6111 21.0068Z" fill="white"/>
<path d="M56.8091 46.8625H51.6379V41.6914H46.4668V15.8357H51.6379C51.6379 8.94084 51.6379 5.49341 51.6379 5.49341H56.8091V0.322266H72.3225V5.49341H77.4937V10.6646H82.6648C82.6648 31.3491 82.6648 41.6914 82.6648 41.6914H77.4937V46.8625H72.3225V52.0337H56.8091V46.8625ZM61.9802 46.8625H67.1514V41.6914H72.3225C72.3225 21.0068 72.3225 10.6646 72.3225 10.6646H67.1514V5.49341H61.9802C61.9802 12.3883 61.9802 15.8357 61.9802 15.8357H67.1514C67.1514 22.7305 67.1514 26.178 67.1514 26.178H61.9802V21.0068H56.8091V15.8357H51.6379V21.0068H56.8091C56.8091 34.7966 56.8091 41.6914 56.8091 41.6914H61.9802V46.8625Z" fill="white"/>
<path d="M129.205 46.8625H124.034V52.0337H108.521V46.8625H103.349V52.0337H93.0071V46.8625H87.8359V41.6914H98.1782V46.8625H103.349C103.349 33.0728 103.349 26.178 103.349 26.178H93.0071V21.0068H103.349V5.49341H98.1782V10.6646H87.8359V5.49341H93.0071V0.322266H108.521V5.49341H113.692V21.0068H124.034V26.178H113.692C113.692 39.9677 113.692 46.8625 113.692 46.8625H118.863V41.6914H129.205V46.8625ZM129.205 10.6646H118.863V5.49341H113.692V0.322266H124.034V5.49341H129.205V10.6646Z" fill="white"/>
<path d="M139.547 46.8625H134.376V41.6914H129.205V15.8357H134.376C134.376 8.94084 134.376 5.49341 134.376 5.49341H139.547V0.322266H155.061V5.49341H160.232V10.6646H165.403C165.403 31.3491 165.403 41.6914 165.403 41.6914H160.232V46.8625H155.061V52.0337H139.547V46.8625ZM144.719 46.8625H149.89V41.6914H155.061C155.061 21.0068 155.061 10.6646 155.061 10.6646H149.89V5.49341H144.719C144.719 12.3883 144.719 15.8357 144.719 15.8357H149.89C149.89 22.7305 149.89 26.178 149.89 26.178H144.719V21.0068H139.547V15.8357H134.376V21.0068H139.547C139.547 34.7966 139.547 41.6914 139.547 41.6914H144.719V46.8625Z" fill="white"/>
</svg>
